<svg xmlns="http://www.w3.org/2000/svg">
  <!--! Font Awesome Pro 6.2.0 by @fontawesome - https://fontawesome.com License - https://fontawesome.com/license (Commercial License) Copyright 2022 Fonticons, Inc. -->
  <defs>

    <symbol viewBox="0 0 448 512" id="icon_plus">
      <path d="M256 80V48H192V80 224H48 16v64H48 192V432v32h64V432 288H400h32V224H400 256V80z"/>
    </symbol>

    <symbol viewBox="0 0 512 512" id="icon_edit">
      <path d="M471.6 21.7c-21.9-21.9-57.3-21.9-79.2 0L362.3 51.7l97.9 97.9 30.1-30.1c21.9-21.9 21.9-57.3 0-79.2L471.6 21.7zm-299.2 220c-6.1 6.1-10.8 13.6-13.5 21.9l-29.6 88.8c-2.9 8.6-.6 18.1 5.8 24.6s15.9 8.7 24.6 5.8l88.8-29.6c8.2-2.8 15.7-7.4 21.9-13.5L437.7 172.3 339.7 74.3 172.4 241.7zM96 64C43 64 0 107 0 160V416c0 53 43 96 96 96H352c53 0 96-43 96-96V320c0-17.7-14.3-32-32-32s-32 14.3-32 32v96c0 17.7-14.3 32-32 32H96c-17.7 0-32-14.3-32-32V160c0-17.7 14.3-32 32-32h96c17.7 0 32-14.3 32-32s-14.3-32-32-32H96z"/>
    </symbol>

    <symbol viewBox="0 0 448 512" id="icon_delete">
      <path d="M144 0L128 32H0V96H448V32H320L304 0H144zM416 128H32L56 512H392l24-384z"/>
    </symbol>

    <symbol viewBox="0 0 512 512" id="check">
      <path d="M256 512c141.4 0 256-114.6 256-256S397.4 0 256 0S0 114.6 0 256S114.6 512 256 512zM369 209L241 337l-17 17-17-17-64-64-17-17L160 222.1l17 17 47 47L335 175l17-17L385.9 192l-17 17z"/>
    </symbol>

    <symbol viewBox="0 0 320 512" id="cross">
      <path d="M310.6 150.6c12.5-12.5 12.5-32.8 0-45.3s-32.8-12.5-45.3 0L160 210.7 54.6 105.4c-12.5-12.5-32.8-12.5-45.3 0s-12.5 32.8 0 45.3L114.7 256 9.4 361.4c-12.5 12.5-12.5 32.8 0 45.3s32.8 12.5 45.3 0L160 301.3 265.4 406.6c12.5 12.5 32.8 12.5 45.3 0s12.5-32.8 0-45.3L205.3 256 310.6 150.6z"/>
    </symbol>

    <symbol viewBox="0 0 448 512" id="profile">
      <path d="M224 256c70.7 0 128-57.3 128-128S294.7 0 224 0S96 57.3 96 128s57.3 128 128 128zm-45.7 48C79.8 304 0 383.8 0 482.3C0 498.7 13.3 512 29.7 512H418.3c16.4 0 29.7-13.3 29.7-29.7C448 383.8 368.2 304 269.7 304H178.3z"/>
    </symbol>

    <symbol viewBox="0 0 512 512" id="icon_search">
      <path d="M416 208c0 45.9-14.9 88.3-40 122.7L502.6 457.4c12.5 12.5 12.5 32.8 0 45.3s-32.8 12.5-45.3 0L330.7 376c-34.4 25.2-76.8 40-122.7 40C93.1 416 0 322.9 0 208S93.1 0 208 0S416 93.1 416 208zM208 352a144 144 0 1 0 0-288 144 144 0 1 0 0 288z"/>
    </symbol>

    <symbol viewBox="0 0 512 512" id="icon_internet"><!--! Font Awesome Pro 6.3.0 by @fontawesome - https://fontawesome.com License - https://fontawesome.com/license (Commercial License) Copyright 2023 Fonticons, Inc. -->
      <path d="M256 32c14.2 0 27.3 7.5 34.5 19.8l216 368c7.3 12.4 7.3 27.7 .2 40.1S486.3 480 472 480H40c-14.3 0-27.6-7.7-34.7-20.1s-7-27.8 .2-40.1l216-368C228.7 39.5 241.8 32 256 32zm0 128c-13.3 0-24 10.7-24 24V296c0 13.3 10.7 24 24 24s24-10.7 24-24V184c0-13.3-10.7-24-24-24zm32 224a32 32 0 1 0 -64 0 32 32 0 1 0 64 0z"/>
    </symbol>

    <symbol viewBox="0 0 640 640" id="icon_clipboard"><!--!Font Awesome Free v7.0.0 by @fontawesome - https://fontawesome.com License - https://fontawesome.com/license/free Copyright 2025 Fonticons, Inc.-->
      <path d="M439.4 96L448 96C483.3 96 512 124.7 512 160L512 512C512 547.3 483.3 576 448 576L192 576C156.7 576 128 547.3 128 512L128 160C128 124.7 156.7 96 192 96L200.6 96C211.6 76.9 232.3 64 256 64L384 64C407.7 64 428.4 76.9 439.4 96zM376 176C389.3 176 400 165.3 400 152C400 138.7 389.3 128 376 128L264 128C250.7 128 240 138.7 240 152C240 165.3 250.7 176 264 176L376 176zM256 320C256 302.3 241.7 288 224 288C206.3 288 192 302.3 192 320C192 337.7 206.3 352 224 352C241.7 352 256 337.7 256 320zM288 320C288 333.3 298.7 344 312 344L424 344C437.3 344 448 333.3 448 320C448 306.7 437.3 296 424 296L312 296C298.7 296 288 306.7 288 320zM288 448C288 461.3 298.7 472 312 472L424 472C437.3 472 448 461.3 448 448C448 434.7 437.3 424 424 424L312 424C298.7 424 288 434.7 288 448zM224 480C241.7 480 256 465.7 256 448C256 430.3 241.7 416 224 416C206.3 416 192 430.3 192 448C192 465.7 206.3 480 224 480z"/>
    </symbol>

    <symbol viewBox="0 0 640 640" id="icon_eye"><!--!Font Awesome Free v7.0.0 by @fontawesome - https://fontawesome.com License - https://fontawesome.com/license/free Copyright 2025 Fonticons, Inc.-->
      <path d="M320 144C254.8 144 201.2 173.6 160.1 211.7C121.6 247.5 95 290 81.4 320C95 350 121.6 392.5 160.1 428.3C201.2 466.4 254.8 496 320 496C385.2 496 438.8 466.4 479.9 428.3C518.4 392.5 545 350 558.6 320C545 290 518.4 247.5 479.9 211.7C438.8 173.6 385.2 144 320 144zM127.4 176.6C174.5 132.8 239.2 96 320 96C400.8 96 465.5 132.8 512.6 176.6C559.4 220.1 590.7 272 605.6 307.7C608.9 315.6 608.9 324.4 605.6 332.3C590.7 368 559.4 420 512.6 463.4C465.5 507.1 400.8 544 320 544C239.2 544 174.5 507.2 127.4 463.4C80.6 419.9 49.3 368 34.4 332.3C31.1 324.4 31.1 315.6 34.4 307.7C49.3 272 80.6 220 127.4 176.6zM320 400C364.2 400 400 364.2 400 320C400 290.4 383.9 264.5 360 250.7C358.6 310.4 310.4 358.6 250.7 360C264.5 383.9 290.4 400 320 400zM240.4 311.6C242.9 311.9 245.4 312 248 312C283.3 312 312 283.3 312 248C312 245.4 311.8 242.9 311.6 240.4C274.2 244.3 244.4 274.1 240.5 311.5zM286 196.6C296.8 193.6 308.2 192.1 319.9 192.1C328.7 192.1 337.4 193 345.7 194.7C346 194.8 346.2 194.8 346.5 194.9C404.4 207.1 447.9 258.6 447.9 320.1C447.9 390.8 390.6 448.1 319.9 448.1C258.3 448.1 206.9 404.6 194.7 346.7C192.9 338.1 191.9 329.2 191.9 320.1C191.9 309.1 193.3 298.3 195.9 288.1C196.1 287.4 196.2 286.8 196.4 286.2C208.3 242.8 242.5 208.6 285.9 196.7z"/>
    </symbol>

    <symbol viewBox="0 0 640 640" id="icon_eye_slash"><!--!Font Awesome Free v7.0.0 by @fontawesome - https://fontawesome.com License - https://fontawesome.com/license/free Copyright 2025 Fonticons, Inc.-->
      <path d="M73 39.1C63.6 29.7 48.4 29.7 39.1 39.1C29.8 48.5 29.7 63.7 39 73.1L567 601.1C576.4 610.5 591.6 610.5 600.9 601.1C610.2 591.7 610.3 576.5 600.9 567.2L504.5 470.8C507.2 468.4 509.9 466 512.5 463.6C559.3 420.1 590.6 368.2 605.5 332.5C608.8 324.6 608.8 315.8 605.5 307.9C590.6 272.2 559.3 220.2 512.5 176.8C465.4 133.1 400.7 96.2 319.9 96.2C263.1 96.2 214.3 114.4 173.9 140.4L73 39.1zM208.9 175.1C241 156.2 278.1 144 320 144C385.2 144 438.8 173.6 479.9 211.7C518.4 247.4 545 290 558.5 320C544.9 350 518.3 392.5 479.9 428.3C476.8 431.1 473.7 433.9 470.5 436.7L425.8 392C439.8 371.5 448 346.7 448 320C448 249.3 390.7 192 320 192C293.3 192 268.5 200.2 248 214.2L208.9 175.1zM390.9 357.1L282.9 249.1C294 243.3 306.6 240 320 240C364.2 240 400 275.8 400 320C400 333.4 396.7 346 390.9 357.1zM135.4 237.2L101.4 203.2C68.8 240 46.4 279 34.5 307.7C31.2 315.6 31.2 324.4 34.5 332.3C49.4 368 80.7 420 127.5 463.4C174.6 507.1 239.3 544 320.1 544C357.4 544 391.3 536.1 421.6 523.4L384.2 486C364.2 492.4 342.8 496 320 496C254.8 496 201.2 466.4 160.1 428.3C121.6 392.6 95 350 81.5 320C91.9 296.9 110.1 266.4 135.5 237.2z"/>
    </symbol>

  </defs>
</svg>
